<?xml version="1.0" standalone="no"?>
<!DOCTYPE svg PUBLIC "-//W3C//DTD SVG 20010904//EN"
 "http://www.w3.org/TR/2001/REC-SVG-20010904/DTD/svg10.dtd">
<svg version="1.0" xmlns="http://www.w3.org/2000/svg"
 width="212.000000pt" height="212.000000pt" viewBox="0 0 212.000000 212.000000"
 preserveAspectRatio="xMidYMid meet">
<metadata>
Created by potrace 1.11, written by Peter Selinger 2001-2013
</metadata>
<g transform="translate(0.000000,212.000000) scale(0.100000,-0.100000)"
fill="#000000" stroke="none">
<path d="M338 1365 c-2 -1 -30 -5 -63 -8 -140 -14 -275 -84 -275 -141 1 -42
75 -105 105 -89 13 8 12 11 -9 22 -13 7 -32 28 -42 46 -16 31 -16 33 2 58 71
95 349 124 448 46 36 -28 33 -56 -12 -98 -35 -33 -141 -95 -150 -87 -2 2 15
40 37 84 26 52 37 83 30 88 -6 3 -34 -10 -62 -29 -29 -19 -86 -54 -127 -77
-100 -55 -106 -62 -81 -84 15 -13 36 -18 76 -18 30 0 55 -2 55 -4 0 -2 -25
-55 -56 -119 -31 -64 -54 -119 -50 -122 17 -17 56 35 105 140 50 108 57 118
90 128 50 16 141 65 175 95 18 16 30 38 33 63 5 35 2 40 -28 59 -41 25 -187
59 -201 47z m0 -152 c-2 -5 -14 -31 -27 -60 -26 -58 -43 -68 -102 -58 -57 10
-48 32 33 75 37 19 70 39 74 43 10 9 27 9 22 0z"/>
<path d="M1336 1274 c-60 -19 -110 -50 -159 -99 -47 -47 -65 -82 -61 -118 7
-69 -181 -133 -194 -66 -2 12 16 22 73 38 87 26 108 48 75 81 -41 41 -151 -1
-180 -70 -10 -23 -51 -50 -77 -50 -3 0 10 17 27 38 l31 37 -25 3 c-13 2 -47
-8 -74 -22 -47 -24 -50 -24 -45 -6 7 25 -24 27 -68 4 -30 -15 -31 -15 -24 5 8
27 -6 27 -64 1 -52 -24 -55 -24 -47 -5 6 18 -25 21 -54 5 -16 -8 -18 -7 -14 4
5 13 -4 14 -56 11 -72 -6 -80 -9 -80 -36 0 -20 24 -26 35 -9 3 5 16 15 28 21
17 9 14 3 -10 -23 -18 -19 -33 -37 -33 -41 0 -13 31 -7 72 14 33 17 40 18 35
5 -11 -27 11 -28 62 -1 58 29 68 31 51 10 -25 -30 4 -36 53 -12 40 20 45 21
36 6 -16 -31 7 -31 73 0 35 16 65 28 67 26 2 -2 -6 -16 -18 -31 -12 -15 -19
-29 -17 -31 2 -3 29 3 60 13 56 18 56 18 76 -4 29 -30 129 -34 183 -7 17 8 31
14 31 13 10 -30 42 -77 59 -88 12 -7 57 -16 100 -18 113 -7 200 27 300 115 46
41 76 46 51 8 -21 -32 -7 -33 56 -4 25 12 56 25 70 31 l25 9 -23 -23 c-22 -25
-29 -48 -14 -48 5 0 31 7 58 15 46 14 49 13 72 -7 47 -45 190 -21 246 41 29
32 3 26 -71 -15 -69 -39 -116 -46 -141 -21 -22 23 -10 31 77 57 84 24 108 47
80 76 -41 40 -147 3 -193 -68 -9 -14 -31 -31 -47 -37 l-29 -10 26 35 c15 19
24 37 20 41 -7 7 -49 -5 -109 -31 l-39 -17 16 23 c9 12 16 26 16 30 0 13 -33
9 -64 -7 -40 -21 -47 -19 -36 11 6 14 10 42 10 63 0 102 -50 148 -163 149 -39
1 -94 -6 -121 -14z m199 -14 c9 -8 23 -27 32 -44 19 -37 13 -135 -11 -171 -20
-30 -90 -52 -196 -61 -41 -3 -77 -9 -80 -12 -7 -7 209 6 221 13 5 4 9 4 9 1 0
-3 -19 -18 -43 -35 -50 -34 -152 -71 -198 -71 -65 0 -119 45 -119 100 0 23 -2
23 36 11 55 -18 84 -21 84 -11 0 5 -7 10 -16 10 -31 0 -86 33 -95 57 -24 65
93 178 226 218 50 15 129 12 150 -5z m-491 -159 c10 -15 -18 -38 -66 -54 -27
-9 -48 -12 -48 -7 0 4 16 22 35 39 35 30 68 40 79 22z m971 -1 c11 -17 -14
-39 -57 -50 -21 -6 -47 -14 -56 -17 -28 -10 26 43 62 61 37 19 43 19 51 6z"/>
<path d="M530 1152 c-21 -7 -39 -33 -40 -56 0 -12 5 -16 16 -12 9 3 19 6 24 6
8 0 25 59 18 64 -1 2 -10 1 -18 -2z"/>
</g>
</svg>
